<svg width="110" height="77" viewBox="0 0 110 77" fill="none" xmlns="http://www.w3.org/2000/svg">
<path d="M54.217 54.1611C54.4735 51.5918 54.6883 49.0183 55.0177 46.4594C55.0845 45.9355 55.4932 45.3822 55.8852 44.9861C64.2391 36.5552 72.6139 28.1452 80.9866 19.733C87.1967 13.4921 93.409 7.24899 99.6191 1.00802C100.95 -0.326942 101.573 -0.339516 102.912 0.995441C104.983 3.0597 107.045 5.13234 109.101 7.21127C110.311 8.43515 110.302 9.12464 109.062 10.3737C101.331 18.1487 93.5966 25.9195 85.8621 33.6925C79.0493 40.5391 72.226 47.3752 65.4299 54.2386C64.7542 54.9197 64.0494 55.3095 63.0839 55.385C60.765 55.5673 58.4544 55.8418 56.1376 56.0514C54.9051 56.1625 54.1607 55.4017 54.217 54.1611ZM96.9937 8.25702C96.7664 8.4624 96.5787 8.61329 96.4119 8.78304C83.8185 21.4389 71.2251 34.0948 58.6337 46.7528C58.4627 46.9247 58.2042 47.1049 58.1791 47.3061C57.9643 49.0476 57.7913 50.7954 57.5952 52.6606C59.3928 52.4845 60.9818 52.3546 62.5625 52.1492C62.8983 52.1052 63.2528 51.8391 63.5093 51.5855C67.3171 47.8174 71.1208 44.0452 74.9015 40.252C77.4206 37.7246 79.8897 35.1448 82.4046 32.6111C88.5084 26.4602 94.6247 20.3198 100.749 14.1899C101.108 13.8316 101.606 13.6157 102.021 13.3475C100.151 11.455 98.6161 9.90214 96.9937 8.25702ZM101.252 4.05515C100.603 4.65033 99.9695 5.23293 99.3272 5.82392C100.991 7.48371 102.559 9.0471 104.128 10.6105C104.762 10.0216 105.406 9.42222 106.069 8.80819C104.401 7.16307 102.847 5.62902 101.252 4.05515Z" fill="black"/>
<path d="M19.6878 59.8404C20.4573 59.4464 21.3873 58.9016 22.3695 58.4866C23.3559 58.0696 24.3715 57.6504 25.4162 57.4576C27.8415 57.0134 29.5932 58.407 29.8393 60.8317C30.0186 62.5921 30.786 63.116 32.3917 62.3322C33.9474 61.5736 35.3967 60.5928 36.894 59.7105C39.6696 58.078 42.5328 56.6319 45.8068 56.4182C49.8586 56.1562 53.3849 57.2397 55.7706 60.8233C56.3336 61.67 56.1376 62.6068 55.3806 63.1349C54.6528 63.642 53.7227 63.5226 53.1743 62.7283C51.091 59.721 48.1236 59.2725 44.8538 59.8425C42.1324 60.3162 39.8051 61.7475 37.4821 63.1579C36.3226 63.8621 35.1757 64.5935 33.9724 65.2096C32.7421 65.8404 31.4199 66.0688 30.029 65.7398C28.0459 65.2725 26.7091 63.7866 26.682 61.7496C26.6695 60.7458 26.2733 60.4733 25.435 60.7563C22.6677 61.6909 20.2279 63.2145 17.9924 65.0755C17.7505 65.2767 17.6504 65.6707 17.5253 65.9934C16.1114 69.6252 14.2388 72.993 11.8072 76.0401C10.7083 77.417 9.40493 77.2997 8.62501 75.7279C7.95978 74.3866 8.06196 73.0014 8.61667 71.6685C9.83242 68.745 11.851 66.3937 14.0824 64.2225C14.7789 63.5435 15.2689 62.8205 15.5254 61.8775C16.9289 56.7304 17.5023 51.5352 16.4847 46.2415C15.736 42.3498 13.4422 42.6725 11.2734 44.3763C5.60125 48.8318 2.94243 54.7542 3.29486 62.0032C3.32822 62.699 3.44709 63.3905 3.54301 64.08C3.71193 65.2934 3.28443 66.0667 2.321 66.2554C1.34297 66.4461 0.585991 65.8257 0.369115 64.5746C-0.683986 58.5202 0.542198 52.9121 3.8016 47.7588C5.66798 44.808 8.02026 42.3016 11.1691 40.7005C14.3284 39.0952 17.4627 40.2604 18.9683 43.4794C19.8796 45.4263 20.1528 47.5157 20.132 49.603C20.0965 53.0106 19.8463 56.4119 19.6878 59.8404Z" fill="black"/>
</svg>
