<svg width="11" height="10" viewBox="0 0 11 10" fill="none" xmlns="http://www.w3.org/2000/svg">
<mask id="path-1-inside-1_402_12" fill="white">
<path d="M10.7997 8.89364C11.4281 9.48713 10.4331 10.4268 9.80472 9.78387L5.19638 5.48109C4.93454 5.2338 4.93454 4.78869 5.19638 4.5414L9.80472 0.18916C10.4331 -0.404327 11.4281 0.535361 10.7997 1.12885L6.71504 4.98652L10.7997 8.89364Z"/>
</mask>
<path d="M10.7997 8.89364C11.4281 9.48713 10.4331 10.4268 9.80472 9.78387L5.19638 5.48109C4.93454 5.2338 4.93454 4.78869 5.19638 4.5414L9.80472 0.18916C10.4331 -0.404327 11.4281 0.535361 10.7997 1.12885L6.71504 4.98652L10.7997 8.89364Z" fill="#6366F1"/>
<path d="M10.7997 8.89364L10.1131 9.62068L10.1085 9.61628L10.7997 8.89364ZM9.80472 9.78387L10.4872 9.05295L10.5039 9.06855L10.5199 9.0849L9.80472 9.78387ZM5.19638 5.48109L4.51391 6.21203L4.50976 6.20811L5.19638 5.48109ZM6.71504 4.98652L6.02381 5.70915L5.26351 4.9819L6.02842 4.2595L6.71504 4.98652ZM11.4863 8.16662C11.855 8.5148 12.0376 8.98174 11.9936 9.46435C11.9526 9.91339 11.7254 10.2857 11.4504 10.5385C11.1737 10.793 10.7907 10.981 10.3541 10.9987C9.89257 11.0173 9.43993 10.8413 9.08958 10.4829L10.5199 9.0849C10.4837 9.04792 10.3911 8.99552 10.2732 9.00029C10.1803 9.00406 10.1246 9.0406 10.0966 9.06633C10.0704 9.09043 10.0133 9.15669 10.0019 9.28272C9.99573 9.34983 10.0046 9.42306 10.0316 9.49225C10.0585 9.56118 10.0942 9.60286 10.1131 9.62066L11.4863 8.16662ZM9.12226 10.5148L4.51392 6.21201L5.87884 4.75017L10.4872 9.05295L9.12226 10.5148ZM4.50976 6.20811C3.83008 5.5662 3.83008 4.45629 4.50976 3.81438L5.88299 5.26842C5.97297 5.18345 6 5.08319 6 5.01125C6 4.9393 5.97297 4.83905 5.88299 4.75407L4.50976 6.20811ZM4.50976 3.81438L9.11811 -0.537859L10.4913 0.91618L5.88299 5.26842L4.50976 3.81438ZM9.11811 -0.537859C9.92068 -1.29583 10.9382 -1.00608 11.4601 -0.513131C11.7279 -0.260271 11.953 0.109968 11.9936 0.557799C12.0374 1.04015 11.8556 1.50715 11.4863 1.85587L10.1131 0.401828C10.0942 0.419667 10.0584 0.461468 10.0314 0.530521C10.0044 0.599836 9.99583 0.672634 10.0018 0.738573C10.013 0.861841 10.0679 0.922971 10.0869 0.940909C10.1075 0.960397 10.1516 0.992298 10.233 0.998889C10.3386 1.00744 10.4389 0.965749 10.4913 0.91618L9.11811 -0.537859ZM11.4863 1.85587L7.40165 5.71354L6.02842 4.2595L10.1131 0.401828L11.4863 1.85587ZM7.40626 4.26388L11.4909 8.171L10.1085 9.61628L6.02381 5.70915L7.40626 4.26388Z" fill="#6366F1" mask="url(#path-1-inside-1_402_12)"/>
<mask id="path-3-inside-2_402_12" fill="white">
<path d="M5.79971 8.89364C6.42812 9.48713 5.43313 10.4268 4.80472 9.78387L0.196378 5.48109C-0.0654599 5.2338 -0.0654599 4.78869 0.196378 4.5414L4.80472 0.18916C5.43313 -0.404327 6.42812 0.535361 5.79971 1.12885L1.71504 4.98652L5.79971 8.89364Z"/>
</mask>
<path d="M5.79971 8.89364C6.42812 9.48713 5.43313 10.4268 4.80472 9.78387L0.196378 5.48109C-0.0654599 5.2338 -0.0654599 4.78869 0.196378 4.5414L4.80472 0.18916C5.43313 -0.404327 6.42812 0.535361 5.79971 1.12885L1.71504 4.98652L5.79971 8.89364Z" fill="#6366F1"/>
<path d="M5.79971 8.89364L5.11308 9.62068L5.10848 9.61628L5.79971 8.89364ZM4.80472 9.78387L5.48718 9.05295L5.50389 9.06855L5.51987 9.0849L4.80472 9.78387ZM0.196378 5.48109L-0.486092 6.21203L-0.490238 6.20811L0.196378 5.48109ZM1.71504 4.98652L1.02381 5.70915L0.263508 4.9819L1.02842 4.2595L1.71504 4.98652ZM6.48632 8.16662C6.85499 8.5148 7.0376 8.98174 6.99359 9.46435C6.95264 9.91339 6.72537 10.2857 6.45041 10.5385C6.17368 10.793 5.79073 10.981 5.35411 10.9987C4.89257 11.0173 4.43993 10.8413 4.08958 10.4829L5.51987 9.0849C5.48372 9.04792 5.39111 8.99552 5.27323 9.00029C5.18027 9.00406 5.12462 9.0406 5.09664 9.06633C5.07043 9.09043 5.01335 9.15669 5.00185 9.28272C4.99573 9.34983 5.00459 9.42306 5.03159 9.49225C5.05849 9.56118 5.09424 9.60286 5.11309 9.62066L6.48632 8.16662ZM4.12226 10.5148L-0.486081 6.21201L0.878837 4.75017L5.48718 9.05295L4.12226 10.5148ZM-0.490238 6.20811C-1.16992 5.5662 -1.16992 4.45629 -0.490239 3.81438L0.882994 5.26842C0.972971 5.18345 1 5.08319 1 5.01125C1 4.9393 0.972971 4.83905 0.882994 4.75407L-0.490238 6.20811ZM-0.490239 3.81438L4.11811 -0.537859L5.49134 0.91618L0.882994 5.26842L-0.490239 3.81438ZM4.11811 -0.537859C4.92068 -1.29583 5.93819 -1.00608 6.46014 -0.513131C6.72788 -0.260271 6.95298 0.109968 6.99363 0.557799C7.03741 1.04015 6.85556 1.50715 6.48632 1.85587L5.11309 0.401828C5.0942 0.419667 5.05836 0.461468 5.03144 0.530521C5.00442 0.599836 4.99583 0.672634 5.00181 0.738573C5.013 0.861841 5.06791 0.922971 5.08691 0.940909C5.10754 0.960397 5.15156 0.992298 5.23298 0.998889C5.33863 1.00744 5.43885 0.965749 5.49134 0.91618L4.11811 -0.537859ZM6.48632 1.85587L2.40165 5.71354L1.02842 4.2595L5.11309 0.401828L6.48632 1.85587ZM2.40626 4.26388L6.49093 8.171L5.10848 9.61628L1.02381 5.70915L2.40626 4.26388Z" fill="#6366F1" mask="url(#path-3-inside-2_402_12)"/>
</svg>
