<svg width="11" height="10" viewBox="0 0 11 10" fill="none" xmlns="http://www.w3.org/2000/svg">
<mask id="path-1-inside-1_402_13" fill="white">
<path d="M0.200293 1.10636C-0.428118 0.51287 0.566865 -0.426818 1.19528 0.216126L5.80362 4.51891C6.06546 4.7662 6.06546 5.21131 5.80362 5.4586L1.19528 9.81084C0.566865 10.4043 -0.428118 9.46464 0.200293 8.87115L4.28496 5.01348L0.200293 1.10636Z"/>
</mask>
<path d="M0.200293 1.10636C-0.428118 0.51287 0.566865 -0.426818 1.19528 0.216126L5.80362 4.51891C6.06546 4.7662 6.06546 5.21131 5.80362 5.4586L1.19528 9.81084C0.566865 10.4043 -0.428118 9.46464 0.200293 8.87115L4.28496 5.01348L0.200293 1.10636Z" fill="#6366F1"/>
<path d="M0.200293 1.10636L0.886923 0.379323L0.89152 0.38372L0.200293 1.10636ZM1.19528 0.216126L0.512817 0.94705L0.49611 0.931451L0.480133 0.915104L1.19528 0.216126ZM5.80362 4.51891L6.48609 3.78797L6.49024 3.79189L5.80362 4.51891ZM4.28496 5.01348L4.97619 4.29085L5.73649 5.0181L4.97158 5.7405L4.28496 5.01348ZM-0.486324 1.83338C-0.854992 1.4852 -1.0376 1.01826 -0.99359 0.535652C-0.952641 0.0866114 -0.725366 -0.285666 -0.45041 -0.538508C-0.173681 -0.79298 0.209268 -0.980986 0.645887 -0.998658C1.10743 -1.01734 1.56007 -0.841302 1.91042 -0.482851L0.480133 0.915104C0.516275 0.952082 0.608891 1.00448 0.726771 0.999705C0.819728 0.995943 0.87538 0.9594 0.903363 0.933668C0.929573 0.909566 0.986653 0.843305 0.998146 0.717283C1.00427 0.650169 0.995413 0.576941 0.968409 0.507752C0.941506 0.438823 0.905759 0.39714 0.886909 0.379338L-0.486324 1.83338ZM1.87774 -0.514797L6.48608 3.78799L5.12116 5.24983L0.512817 0.94705L1.87774 -0.514797ZM6.49024 3.79189C7.16992 4.4338 7.16992 5.54371 6.49024 6.18562L5.11701 4.73158C5.02703 4.81655 5 4.91681 5 4.98875C5 5.0607 5.02703 5.16095 5.11701 5.24593L6.49024 3.79189ZM6.49024 6.18562L1.88189 10.5379L0.50866 9.08382L5.11701 4.73158L6.49024 6.18562ZM1.88189 10.5379C1.07932 11.2958 0.0618114 11.0061 -0.46014 10.5131C-0.72788 10.2603 -0.952985 9.89003 -0.993629 9.4422C-1.03741 8.95985 -0.855564 8.49285 -0.486324 8.14413L0.886909 9.59817C0.905797 9.58033 0.941636 9.53853 0.968555 9.46948C0.995576 9.40016 1.00417 9.32737 0.998185 9.26143C0.986997 9.13816 0.932086 9.07703 0.913093 9.05909C0.892458 9.0396 0.84844 9.0077 0.767016 9.00111C0.66137 8.99256 0.561146 9.03425 0.50866 9.08382L1.88189 10.5379ZM-0.486324 8.14413L3.59835 4.28646L4.97158 5.7405L0.886909 9.59817L-0.486324 8.14413ZM3.59374 5.73612L-0.490934 1.82899L0.89152 0.38372L4.97619 4.29085L3.59374 5.73612Z" fill="#6366F1" mask="url(#path-1-inside-1_402_13)"/>
<mask id="path-3-inside-2_402_13" fill="white">
<path d="M5.20029 1.10636C4.57188 0.51287 5.56687 -0.426818 6.19528 0.216126L10.8036 4.51891C11.0655 4.7662 11.0655 5.21131 10.8036 5.4586L6.19528 9.81084C5.56687 10.4043 4.57188 9.46464 5.20029 8.87115L9.28496 5.01348L5.20029 1.10636Z"/>
</mask>
<path d="M5.20029 1.10636C4.57188 0.51287 5.56687 -0.426818 6.19528 0.216126L10.8036 4.51891C11.0655 4.7662 11.0655 5.21131 10.8036 5.4586L6.19528 9.81084C5.56687 10.4043 4.57188 9.46464 5.20029 8.87115L9.28496 5.01348L5.20029 1.10636Z" fill="#6366F1"/>
<path d="M5.20029 1.10636L5.88692 0.379323L5.89152 0.38372L5.20029 1.10636ZM6.19528 0.216126L5.51282 0.94705L5.49611 0.931451L5.48013 0.915104L6.19528 0.216126ZM10.8036 4.51891L11.4861 3.78797L11.4902 3.79189L10.8036 4.51891ZM9.28496 5.01348L9.97619 4.29085L10.7365 5.0181L9.97158 5.7405L9.28496 5.01348ZM4.51368 1.83338C4.14501 1.4852 3.9624 1.01826 4.00641 0.535652C4.04736 0.0866114 4.27463 -0.285666 4.54959 -0.538508C4.82632 -0.79298 5.20927 -0.980986 5.64589 -0.998658C6.10743 -1.01734 6.56007 -0.841302 6.91042 -0.482851L5.48013 0.915104C5.51627 0.952082 5.60889 1.00448 5.72677 0.999705C5.81973 0.995943 5.87538 0.9594 5.90336 0.933668C5.92957 0.909566 5.98665 0.843305 5.99815 0.717283C6.00427 0.650169 5.99541 0.576941 5.96841 0.507752C5.94151 0.438823 5.90576 0.39714 5.88691 0.379338L4.51368 1.83338ZM6.87774 -0.514797L11.4861 3.78799L10.1212 5.24983L5.51282 0.94705L6.87774 -0.514797ZM11.4902 3.79189C12.1699 4.4338 12.1699 5.54371 11.4902 6.18562L10.117 4.73158C10.027 4.81655 10 4.91681 10 4.98875C10 5.0607 10.027 5.16095 10.117 5.24593L11.4902 3.79189ZM11.4902 6.18562L6.88189 10.5379L5.50866 9.08382L10.117 4.73158L11.4902 6.18562ZM6.88189 10.5379C6.07932 11.2958 5.06181 11.0061 4.53986 10.5131C4.27212 10.2603 4.04702 9.89003 4.00637 9.4422C3.96259 8.95985 4.14444 8.49285 4.51368 8.14413L5.88691 9.59817C5.9058 9.58033 5.94164 9.53853 5.96855 9.46948C5.99558 9.40016 6.00417 9.32737 5.99818 9.26143C5.987 9.13816 5.93209 9.07703 5.91309 9.05909C5.89246 9.0396 5.84844 9.0077 5.76702 9.00111C5.66137 8.99256 5.56115 9.03425 5.50866 9.08382L6.88189 10.5379ZM4.51368 8.14413L8.59835 4.28646L9.97158 5.7405L5.88691 9.59817L4.51368 8.14413ZM8.59374 5.73612L4.50907 1.82899L5.89152 0.38372L9.97619 4.29085L8.59374 5.73612Z" fill="#6366F1" mask="url(#path-3-inside-2_402_13)"/>
</svg>
