<svg width="6" height="10" viewBox="0 0 6 10" fill="none" xmlns="http://www.w3.org/2000/svg">
<mask id="path-1-inside-1_402_6" fill="white">
<path d="M5.79971 1.10636C6.42812 0.51287 5.43313 -0.426818 4.80472 0.216126L0.196378 4.51891C-0.0654595 4.7662 -0.0654595 5.21131 0.196378 5.4586L4.80472 9.81084C5.43313 10.4043 6.42812 9.46464 5.79971 8.87115L1.71504 5.01348L5.79971 1.10636Z"/>
</mask>
<path d="M5.79971 1.10636C6.42812 0.51287 5.43313 -0.426818 4.80472 0.216126L0.196378 4.51891C-0.0654595 4.7662 -0.0654595 5.21131 0.196378 5.4586L4.80472 9.81084C5.43313 10.4043 6.42812 9.46464 5.79971 8.87115L1.71504 5.01348L5.79971 1.10636Z" fill="#6366F1"/>
<path d="M5.79971 1.10636L5.11308 0.379323L5.10848 0.38372L5.79971 1.10636ZM4.80472 0.216126L5.48718 0.94705L5.50389 0.931451L5.51987 0.915104L4.80472 0.216126ZM0.196378 4.51891L-0.486092 3.78797L-0.490238 3.79189L0.196378 4.51891ZM0.196378 5.4586L0.882995 4.73158L0.196378 5.4586ZM4.80472 9.81084L5.49134 9.08382L4.80472 9.81084ZM5.79971 8.87115L6.48632 8.14413L5.79971 8.87115ZM1.71504 5.01348L1.02381 4.29085L0.263509 5.0181L1.02842 5.7405L1.71504 5.01348ZM6.48632 1.83338C6.85499 1.4852 7.0376 1.01826 6.99359 0.535652C6.95264 0.0866114 6.72537 -0.285666 6.45041 -0.538508C6.17368 -0.79298 5.79073 -0.980986 5.35411 -0.998658C4.89257 -1.01734 4.43993 -0.841302 4.08958 -0.482851L5.51987 0.915104C5.48373 0.952082 5.39111 1.00448 5.27323 0.999705C5.18027 0.995943 5.12462 0.9594 5.09664 0.933668C5.07043 0.909566 5.01335 0.843305 5.00185 0.717283C4.99573 0.650169 5.00459 0.576941 5.03159 0.507752C5.05849 0.438824 5.09424 0.39714 5.11309 0.379338L6.48632 1.83338ZM4.12226 -0.514797L-0.486081 3.78799L0.878837 5.24983L5.48718 0.94705L4.12226 -0.514797ZM-0.490238 3.79189C-1.16992 4.4338 -1.16992 5.54371 -0.490238 6.18562L0.882995 4.73158C0.972971 4.81656 1 4.91681 1 4.98875C1 5.0607 0.972971 5.16095 0.882995 5.24593L-0.490238 3.79189ZM-0.490238 6.18562L4.11811 10.5379L5.49134 9.08382L0.882995 4.73158L-0.490238 6.18562ZM4.11811 10.5379C4.92068 11.2958 5.93819 11.0061 6.46014 10.5131C6.72788 10.2603 6.95298 9.89003 6.99363 9.4422C7.03741 8.95985 6.85556 8.49285 6.48632 8.14413L5.11309 9.59817C5.0942 9.58033 5.05836 9.53853 5.03145 9.46948C5.00442 9.40016 4.99583 9.32737 5.00182 9.26143C5.013 9.13816 5.06791 9.07703 5.08691 9.05909C5.10754 9.0396 5.15156 9.0077 5.23298 9.00111C5.33863 8.99256 5.43885 9.03425 5.49134 9.08382L4.11811 10.5379ZM6.48632 8.14413L2.40165 4.28646L1.02842 5.7405L5.11309 9.59817L6.48632 8.14413ZM2.40626 5.73612L6.49093 1.82899L5.10848 0.38372L1.02381 4.29085L2.40626 5.73612Z" fill="#6366F1" mask="url(#path-1-inside-1_402_6)"/>
</svg>
